<?xml version="1.0" standalone="no"?>
<!DOCTYPE svg PUBLIC "-//W3C//DTD SVG 20010904//EN"
 "http://www.w3.org/TR/2001/REC-SVG-20010904/DTD/svg10.dtd">
<svg version="1.0" xmlns="http://www.w3.org/2000/svg"
 width="1000.000000pt" height="500.000000pt" viewBox="0 0 1000.000000 500.000000"
 preserveAspectRatio="xMidYMid meet">
<g transform="translate(0.000000,500.000000) scale(0.100000,-0.100000)"
fill="#000000" stroke="none">
<path d="M2780 3328 c-219 -11 -591 -59 -875 -113 -204 -38 -266 -55 -545 
-148 -329 -109 -554 -194 -655 -245 -101 -51 -396 -241 -419 -269 -69 -86 -97 
-128 -94 -144 4 -26 286 -319 307 -319 31 0 32 -13 4 -42 -27 -28 -27 -28 -9 
-64 28 -59 104 -160 175 -233 51 -53 76 -70 113 -80 64 -18 94 -9 116 36 26 
55 123 118 327 210 265 121 509 215 785 304 469 152 481 155 935 199 261 26 
521 44 748 54 335 13 354 13 480 -5 298 -44 627 -79 744 -79 l122 0 43 -77 
c43 -77 43 -79 41 -168 -2 -90 -29 -189 -68 -248 -39 -59 51 -61 109 -2 19 19 
49 64 66 100 46 96 57 184 34 267 -4 14 0 15 33 8 101 -23 225 47 274 155 23 
51 35 66 72 85 42 23 46 23 70 7 18 -11 24 -22 20 -37 -7 -25 -2 -25 39 0 18 
11 41 20 51 20 23 0 76 -26 104 -52 20 -19 27 -19 129 -9 59 6 113 11 121 11 
7 0 13 9 13 19 0 11 4 22 9 26 11 6 519 -55 1291 -155 749 -98 908 -110 1175 
-94 l210 12 175 66 c292 111 382 170 532 348 141 167 229 282 218 286 -5 2 
-71 -8 -147 -22 -143 -26 -542 -66 -664 -66 -108 0 -402 48 -504 82 -49 17 
-132 50 -183 74 -92 43 -307 169 -318 185 -9 15 -42 11 -234 -30 -172 -37 
-214 -42 -591 -67 l-405 -28 -345 37 c-304 33 -582 75 -702 108 -38 10 -40 9 
-75 -29 -47 -50 -83 -68 -172 -87 -82 -17 -143 -19 -170 -5 -10 5 -30 29 -46 
54 -18 28 -47 55 -83 76 -48 28 -66 33 -126 33 -59 1 -90 -7 -205 -48 l-135 
-49 -215 0 c-240 -1 -270 4 -435 74 -80 34 -112 41 -290 64 -181 24 -230 26 
-505 25 -168 -1 -379 -6 -470 -11z m583 -106 c49 -54 18 -132 -52 -132 -53 0 
-86 36 -77 84 4 20 17 42 29 51 29 20 80 19 100 -3z m343 -37 c22 -34 11 -88 
-23 -115 -35 -27 -59 -25 -94 9 -34 35 -37 68 -8 105 17 21 29 26 64 26 36 0 
48 -5 61 -25z m169 -270 c517 -31 611 -38 633 -46 16 -6 22 -17 22 -38 0 -17 
11 -56 25 -87 l25 -56 -43 7 c-23 4 -96 31 -162 61 -117 52 -124 54 -290 73 
-492 57 -877 63 -1293 20 -107 -11 -199 -18 -204 -17 -27 9 436 63 672 78 343 
22 335 22 615 5z m3581 -24 c466 -12 728 -23 740 -30 26 -15 -1 -14 -920 9 
-436 11 -796 25 -805 30 -23 14 158 12 985 -9z m-3462 -166 c40 -37 29 -92 
-23 -119 -27 -14 -31 -14 -62 7 -67 45 -39 133 42 136 9 1 28 -10 43 -24z 
m283 -15 c54 -33 53 -100 -3 -136 -25 -17 -28 -17 -62 2 -62 34 -63 110 -2 
141 32 16 29 16 67 -7z m-3323 -81 c54 -42 16 -129 -57 -129 -51 0 -98 60 -77 
100 29 54 86 66 134 29z m-353 -111 c60 -50 18 -159 -53 -140 -25 6 -58 50 
-58 77 0 56 71 96 111 63z m926 -180 c33 -30 31 -80 -3 -107 -56 -44 -144 -12 
-144 52 0 18 4 37 8 43 26 38 104 45 139 12z m-280 -110 c32 -37 34 -45 19 
-82 -25 -60 -67 -71 -115 -30 -22 19 -31 34 -31 57 0 67 83 103 127 55z"/>
</g>
</svg>
